<?xml version="1.0" standalone="no"?>
<!DOCTYPE svg PUBLIC "-//W3C//DTD SVG 20010904//EN"
 "http://www.w3.org/TR/2001/REC-SVG-20010904/DTD/svg10.dtd">
<svg version="1.0" xmlns="http://www.w3.org/2000/svg"
 width="1024.000000pt" height="423.000000pt" viewBox="0 0 1024.000000 423.000000"
 preserveAspectRatio="xMidYMid meet">

<g transform="translate(0.000000,423.000000) scale(0.100000,-0.100000)"
fill="#000000" stroke="none">
<path d="M1130 2940 l0 -280 160 0 160 0 0 -480 0 -480 -160 0 -160 0 0 -275
0 -275 720 0 720 0 0 275 0 275 -160 0 -160 0 0 480 0 479 158 3 157 3 3 278
2 277 -720 0 -720 0 0 -280z"/>
<path d="M3667 3134 c-12 -12 -6 -217 7 -254 7 -20 28 -45 47 -58 29 -20 44
-23 97 -20 55 3 67 8 95 36 l32 32 3 136 4 135 -34 -3 -33 -3 -5 -115 c-3 -63
-9 -121 -13 -128 -26 -40 -112 -32 -122 12 -3 11 -6 68 -8 126 l-2 105 -30 3
c-17 2 -34 0 -38 -4z"/>
<path d="M4170 2970 l0 -170 35 0 35 0 0 107 0 106 82 -106 c69 -92 85 -107
110 -107 l28 0 0 170 0 170 -35 0 -34 0 -3 -101 -3 -101 -78 101 c-67 88 -81
101 -107 101 l-30 0 0 -170z"/>
<path d="M4680 2970 l0 -170 35 0 35 0 0 170 0 170 -35 0 -35 0 0 -170z"/>
<path d="M4940 3135 c0 -3 30 -79 66 -170 l66 -165 32 0 32 0 63 158 c35 86
65 163 68 170 4 8 -7 12 -34 12 l-39 0 -38 -103 c-20 -56 -41 -109 -45 -116
-6 -9 -18 11 -36 60 -58 156 -60 159 -99 159 -20 0 -36 -2 -36 -5z"/>
<path d="M5455 3127 c-3 -7 -4 -82 -3 -167 l3 -155 128 -3 127 -3 0 36 0 35
-90 0 -90 0 0 35 0 35 75 0 75 0 0 30 0 30 -75 0 -75 0 0 35 0 34 88 3 87 3 0
30 0 30 -123 3 c-94 2 -124 0 -127 -11z"/>
<path d="M5917 3133 c-4 -3 -7 -80 -7 -170 l0 -163 35 0 35 0 0 56 0 55 32 -3
c27 -2 39 -13 68 -55 32 -47 39 -52 73 -53 20 0 37 3 37 8 0 4 -16 31 -35 59
l-35 52 23 16 c74 48 55 171 -30 194 -42 12 -186 15 -196 4z m188 -87 c31 -47
-10 -82 -86 -74 -33 3 -34 5 -37 51 l-3 47 55 0 c48 0 58 -3 71 -24z"/>
<path d="M6435 3128 c-47 -25 -68 -83 -49 -133 8 -19 50 -42 116 -61 55 -17
71 -40 43 -60 -26 -19 -54 -17 -100 6 l-40 20 -17 -22 c-10 -13 -18 -26 -18
-30 0 -3 19 -16 43 -27 80 -39 180 -22 205 34 31 67 -6 121 -101 149 -63 18
-81 41 -51 63 20 14 63 10 97 -11 15 -9 21 -7 37 14 10 13 16 28 13 33 -19 31
-137 48 -178 25z"/>
<path d="M6830 2970 l0 -170 35 0 35 0 0 170 0 170 -35 0 -35 0 0 -170z"/>
<path d="M7090 3105 l0 -35 50 0 50 0 0 -135 0 -135 35 0 35 0 0 135 0 135 50
0 50 0 0 35 0 35 -135 0 -135 0 0 -35z"/>
<path d="M7540 3131 c0 -6 27 -52 60 -104 58 -90 60 -96 60 -160 l0 -67 35 0
35 0 0 67 c0 70 -5 59 118 251 14 22 13 22 -26 22 -39 0 -42 -3 -81 -65 -23
-36 -43 -65 -45 -65 -2 0 -22 29 -45 65 -37 60 -43 65 -76 65 -19 0 -35 -4
-35 -9z"/>
<path d="M8378 3120 c-55 -30 -82 -74 -86 -145 -3 -50 0 -65 20 -94 42 -61 71
-76 151 -76 85 0 125 22 157 85 77 152 -90 310 -242 230z m156 -76 c75 -76 0
-207 -100 -174 -39 13 -74 60 -74 100 0 40 35 88 72 98 44 11 73 4 102 -24z"/>
<path d="M8840 2970 l0 -170 35 0 35 0 0 65 0 65 80 0 80 0 0 35 0 35 -80 0
-80 0 0 35 0 35 90 0 90 0 0 35 0 35 -125 0 -125 0 0 -170z"/>
<path d="M7350 2559 c-117 -20 -240 -99 -304 -196 -85 -128 -89 -334 -10 -469
31 -53 118 -136 172 -163 131 -67 313 -67 444 0 66 34 152 122 186 192 99 202
35 450 -148 567 -96 62 -226 88 -340 69z m196 -192 c151 -79 191 -302 76 -429
-122 -135 -336 -107 -419 56 -36 68 -38 178 -7 246 27 56 77 107 129 132 49
23 173 20 221 -5z"/>
<path d="M8627 2540 c-112 -44 -167 -122 -167 -240 0 -48 6 -78 23 -110 36
-74 92 -103 307 -164 30 -9 70 -25 88 -36 27 -17 32 -25 32 -60 0 -35 -4 -43
-32 -60 -69 -42 -201 -20 -300 48 l-45 31 -52 -60 c-28 -34 -51 -65 -51 -69 0
-13 58 -54 117 -84 151 -75 354 -71 460 10 101 77 124 256 43 347 -41 47 -109
80 -235 116 -60 18 -121 40 -135 50 -60 43 -45 110 30 132 51 15 127 0 207
-42 30 -16 59 -26 64 -23 5 3 27 32 50 65 46 68 45 71 -29 112 -106 58 -279
75 -375 37z"/>
<path d="M3690 2120 l0 -430 95 0 95 0 0 430 0 430 -95 0 -95 0 0 -430z"/>
<path d="M4110 2120 l0 -430 305 0 305 0 0 85 0 85 -212 2 -213 3 -3 343 -2
342 -90 0 -90 0 0 -430z"/>
<path d="M4860 2120 l0 -430 308 2 307 3 3 83 3 82 -216 0 -215 0 0 345 0 345
-95 0 -95 0 0 -430z"/>
<path d="M5620 2120 l0 -430 95 0 95 0 0 430 0 430 -95 0 -95 0 0 -430z"/>
<path d="M6032 2123 l3 -428 92 -3 93 -3 2 272 3 272 140 -184 c76 -101 169
-223 205 -271 l65 -88 80 3 80 2 0 425 0 425 -92 3 -93 3 -2 -262 -3 -261
-199 261 -199 261 -88 0 -89 0 2 -427z"/>
<path d="M8070 2120 l0 -430 95 0 95 0 0 430 0 430 -95 0 -95 0 0 -430z"/>
<path d="M8596 1439 c-39 -11 -64 -36 -77 -79 -31 -101 89 -178 179 -114 17
12 22 25 22 60 l0 44 -45 0 c-38 0 -45 -3 -45 -20 0 -13 7 -20 20 -20 27 0 27
-36 -1 -43 -51 -14 -95 31 -84 84 8 37 38 53 85 45 26 -4 41 -2 49 8 9 11 9
16 0 21 -23 15 -75 21 -103 14z"/>
<path d="M3690 1361 c0 -70 3 -83 24 -108 20 -23 32 -28 70 -28 72 0 90 25 95
130 l3 85 -26 0 c-26 0 -26 -1 -26 -73 0 -80 -9 -97 -51 -97 -34 0 -39 14 -39
101 0 67 -1 69 -25 69 -25 0 -25 -1 -25 -79z"/>
<path d="M4060 1335 c0 -97 1 -105 19 -105 15 0 21 8 23 32 4 47 31 48 60 4
17 -27 30 -36 51 -36 l28 0 -22 31 c-18 25 -20 35 -11 48 24 33 32 61 22 85
-13 35 -40 46 -109 46 l-61 0 0 -105z m120 50 c21 -26 4 -45 -40 -45 -38 0
-40 2 -40 30 0 27 3 30 34 30 18 0 39 -7 46 -15z"/>
<path d="M4410 1335 l0 -105 73 0 c59 0 77 4 90 18 22 24 22 50 0 74 -13 14
-14 21 -5 30 18 18 14 53 -6 71 -13 12 -37 17 -85 17 l-67 0 0 -105z m117 49
c8 -20 -14 -35 -47 -32 -17 2 -26 10 -28 26 -3 19 1 22 33 22 23 0 38 -5 42
-16z m-3 -70 c9 -3 16 -15 16 -25 0 -16 -8 -19 -45 -19 -37 0 -45 3 -45 18 0
10 3 22 7 25 8 9 46 9 67 1z"/>
<path d="M4792 1343 c-23 -54 -42 -101 -42 -105 0 -17 40 -7 50 12 8 16 21 20
59 20 40 0 50 -3 54 -20 3 -13 14 -20 30 -20 l25 0 -44 103 c-36 85 -47 103
-67 105 -21 3 -28 -7 -65 -95z m88 -15 c0 -5 -11 -8 -25 -8 -29 0 -29 0 -13
35 l12 26 13 -23 c7 -13 12 -26 13 -30z"/>
<path d="M5130 1335 c0 -105 0 -105 25 -105 23 0 24 4 27 63 l3 62 48 -62 c30
-39 56 -63 68 -63 18 0 19 8 19 105 0 98 -1 105 -20 105 -18 0 -20 -7 -20 -60
0 -33 -3 -60 -7 -60 -5 0 -28 27 -51 60 -33 45 -50 60 -68 60 -24 0 -24 -1
-24 -105z"/>
<path d="M5577 1433 c-3 -5 -17 -37 -32 -73 -15 -36 -34 -80 -42 -97 -13 -32
-13 -33 11 -33 16 0 27 7 31 20 5 16 15 20 55 20 40 0 50 -4 55 -20 4 -13 15
-20 32 -20 16 0 23 4 20 13 -73 181 -81 197 -103 197 -13 0 -25 -3 -27 -7z
m45 -95 c7 -15 4 -18 -22 -18 l-31 0 17 33 c12 22 19 27 22 17 3 -8 9 -23 14
-32z"/>
<path d="M6139 1411 c-59 -59 -26 -171 55 -186 33 -7 106 16 106 32 0 20 -23
32 -42 22 -10 -6 -33 -9 -51 -7 -54 5 -72 72 -31 113 18 18 65 20 82 3 10 -9
16 -8 30 6 16 16 16 18 -2 32 -11 8 -42 14 -69 14 -40 0 -53 -5 -78 -29z"/>
<path d="M6470 1335 l0 -105 25 0 c23 0 25 4 25 40 l0 40 45 0 45 0 0 -40 c0
-33 3 -40 20 -40 19 0 20 7 20 105 0 98 -1 105 -20 105 -17 0 -20 -7 -20 -40
l0 -40 -45 0 -45 0 0 40 c0 36 -2 40 -25 40 l-25 0 0 -105z"/>
<path d="M6906 1432 c-6 -10 -86 -194 -86 -199 0 -2 11 -3 24 -3 16 0 27 7 31
20 5 16 15 20 55 20 40 0 50 -4 55 -20 4 -13 15 -20 32 -20 13 0 23 4 21 8
-78 192 -83 202 -105 202 -12 0 -24 -4 -27 -8z m39 -82 l16 -30 -30 0 c-28 0
-29 1 -18 30 6 17 13 30 14 30 1 0 9 -13 18 -30z"/>
<path d="M7210 1335 c0 -98 1 -105 20 -105 18 0 20 7 21 68 0 66 0 67 17 43
47 -68 45 -68 77 -20 l30 44 3 -67 c3 -60 5 -68 22 -68 19 0 20 7 20 105 0
104 0 105 -24 105 -17 0 -32 -12 -53 -45 l-29 -44 -28 44 c-20 33 -34 45 -52
45 -24 0 -24 -1 -24 -105z"/>
<path d="M7600 1335 l0 -105 25 0 c21 0 25 5 25 30 0 27 3 30 34 30 48 0 86
33 86 76 0 55 -28 74 -105 74 l-65 0 0 -105z m124 42 c9 -15 7 -21 -8 -33 -11
-8 -30 -14 -43 -14 -20 0 -23 5 -23 36 0 34 1 35 31 32 18 -2 37 -11 43 -21z"/>
<path d="M7981 1418 c-5 -13 -25 -60 -45 -105 l-35 -83 24 0 c15 0 26 7 30 20
5 17 15 20 57 20 41 0 51 -3 55 -20 3 -13 14 -20 29 -20 13 0 24 3 24 6 0 3
-19 50 -41 105 -36 86 -45 99 -65 99 -16 0 -28 -8 -33 -22z m37 -96 c-27 -5
-30 1 -17 34 l11 29 13 -30 c12 -27 12 -30 -7 -33z"/>
<path d="M8290 1335 l0 -105 25 0 25 0 0 105 0 105 -25 0 -25 0 0 -105z"/>
<path d="M8890 1335 c0 -105 0 -105 25 -105 23 0 24 3 27 65 l3 65 48 -65 c31
-41 55 -65 68 -65 18 0 19 8 19 105 0 97 -1 105 -20 105 -16 0 -19 -8 -22 -62
l-3 -63 -49 63 c-35 45 -56 62 -72 62 -24 0 -24 -1 -24 -105z"/>
<path d="M5860 1320 c0 -17 7 -20 50 -20 43 0 50 3 50 20 0 17 -7 20 -50 20
-43 0 -50 -3 -50 -20z"/>
</g>
</svg>
